<mxfile host="app.diagrams.net" agent="Mozilla/5.0 (Windows NT 10.0; Win64; x64) AppleWebKit/537.36 (KHTML, like Gecko) Chrome/129.0.0.0 Safari/537.36" version="24.8.0">
  <diagram name="Page-1" id="GOdSq4zZK_xezIgQwfRh">
    <mxGraphModel dx="794" dy="1273" grid="1" gridSize="10" guides="1" tooltips="1" connect="1" arrows="1" fold="1" page="1" pageScale="1" pageWidth="1169" pageHeight="827" math="0" shadow="0">
      <root>
        <mxCell id="0" />
        <mxCell id="1" parent="0" />
        <mxCell id="RlkcewKYQu9XTbAVP8YR-1" value="" style="endArrow=none;html=1;rounded=0;strokeWidth=2;" edge="1" parent="1">
          <mxGeometry width="50" height="50" relative="1" as="geometry">
            <mxPoint x="40" as="sourcePoint" />
            <mxPoint x="40" y="-720" as="targetPoint" />
          </mxGeometry>
        </mxCell>
        <mxCell id="RlkcewKYQu9XTbAVP8YR-2" value="&lt;b&gt;&lt;font face=&quot;Verdana&quot;&gt;CRM&lt;/font&gt;&lt;/b&gt;" style="text;html=1;align=center;verticalAlign=middle;whiteSpace=wrap;rounded=0;" vertex="1" parent="1">
          <mxGeometry x="10" y="-740" width="70" height="30" as="geometry" />
        </mxCell>
        <mxCell id="RlkcewKYQu9XTbAVP8YR-3" value="" style="endArrow=none;html=1;rounded=0;strokeWidth=2;" edge="1" parent="1">
          <mxGeometry width="50" height="50" relative="1" as="geometry">
            <mxPoint x="359" as="sourcePoint" />
            <mxPoint x="360" y="-720" as="targetPoint" />
          </mxGeometry>
        </mxCell>
        <mxCell id="RlkcewKYQu9XTbAVP8YR-5" value="" style="endArrow=none;html=1;rounded=0;strokeWidth=2;" edge="1" parent="1">
          <mxGeometry width="50" height="50" relative="1" as="geometry">
            <mxPoint x="560" y="10" as="sourcePoint" />
            <mxPoint x="560" y="-710" as="targetPoint" />
          </mxGeometry>
        </mxCell>
        <mxCell id="RlkcewKYQu9XTbAVP8YR-6" value="&lt;b&gt;&lt;font face=&quot;Verdana&quot;&gt;Four-wheeler app&lt;/font&gt;&lt;/b&gt;" style="text;html=1;align=center;verticalAlign=middle;whiteSpace=wrap;rounded=0;" vertex="1" parent="1">
          <mxGeometry x="480" y="-730" width="160" height="30" as="geometry" />
        </mxCell>
        <mxCell id="RlkcewKYQu9XTbAVP8YR-7" value="" style="endArrow=none;html=1;rounded=0;strokeWidth=2;" edge="1" parent="1">
          <mxGeometry width="50" height="50" relative="1" as="geometry">
            <mxPoint x="760" y="1.33331298828125" as="sourcePoint" />
            <mxPoint x="760" y="-720" as="targetPoint" />
          </mxGeometry>
        </mxCell>
        <mxCell id="RlkcewKYQu9XTbAVP8YR-8" value="&lt;b&gt;&lt;font face=&quot;Verdana&quot;&gt;Operations&lt;/font&gt;&lt;/b&gt;" style="text;html=1;align=center;verticalAlign=middle;whiteSpace=wrap;rounded=0;" vertex="1" parent="1">
          <mxGeometry x="710" y="-740" width="80" height="30" as="geometry" />
        </mxCell>
        <mxCell id="RlkcewKYQu9XTbAVP8YR-9" value="" style="endArrow=classic;html=1;rounded=0;" edge="1" parent="1">
          <mxGeometry width="50" height="50" relative="1" as="geometry">
            <mxPoint x="40" y="-640" as="sourcePoint" />
            <mxPoint x="560" y="-640" as="targetPoint" />
          </mxGeometry>
        </mxCell>
        <mxCell id="RlkcewKYQu9XTbAVP8YR-10" value="&lt;font face=&quot;Verdana&quot;&gt;Data from CRMS&lt;/font&gt;" style="text;html=1;align=left;verticalAlign=middle;whiteSpace=wrap;rounded=0;" vertex="1" parent="1">
          <mxGeometry x="420" y="-670" width="120" height="30" as="geometry" />
        </mxCell>
        <mxCell id="RlkcewKYQu9XTbAVP8YR-12" value="" style="endArrow=classic;html=1;rounded=0;" edge="1" parent="1">
          <mxGeometry width="50" height="50" relative="1" as="geometry">
            <mxPoint x="760" y="-600" as="sourcePoint" />
            <mxPoint x="560" y="-600" as="targetPoint" />
          </mxGeometry>
        </mxCell>
        <mxCell id="RlkcewKYQu9XTbAVP8YR-13" value="" style="endArrow=classic;html=1;rounded=0;" edge="1" parent="1">
          <mxGeometry width="50" height="50" relative="1" as="geometry">
            <mxPoint x="760" y="-520" as="sourcePoint" />
            <mxPoint x="560" y="-520" as="targetPoint" />
          </mxGeometry>
        </mxCell>
        <mxCell id="RlkcewKYQu9XTbAVP8YR-14" value="" style="endArrow=classic;html=1;rounded=0;" edge="1" parent="1">
          <mxGeometry width="50" height="50" relative="1" as="geometry">
            <mxPoint x="760" y="-440" as="sourcePoint" />
            <mxPoint x="560" y="-440" as="targetPoint" />
          </mxGeometry>
        </mxCell>
        <mxCell id="RlkcewKYQu9XTbAVP8YR-15" value="" style="endArrow=classic;html=1;rounded=0;" edge="1" parent="1">
          <mxGeometry width="50" height="50" relative="1" as="geometry">
            <mxPoint x="760" y="-360" as="sourcePoint" />
            <mxPoint x="560" y="-360" as="targetPoint" />
          </mxGeometry>
        </mxCell>
        <mxCell id="RlkcewKYQu9XTbAVP8YR-18" value="&lt;font face=&quot;Verdana&quot;&gt;Schedules creation&lt;/font&gt;" style="text;html=1;align=left;verticalAlign=middle;whiteSpace=wrap;rounded=0;" vertex="1" parent="1">
          <mxGeometry x="585" y="-620" width="145" height="30" as="geometry" />
        </mxCell>
        <mxCell id="RlkcewKYQu9XTbAVP8YR-19" value="&lt;font face=&quot;Verdana&quot;&gt;Attach Geo-cordinates&lt;/font&gt;" style="text;html=1;align=left;verticalAlign=middle;whiteSpace=wrap;rounded=0;" vertex="1" parent="1">
          <mxGeometry x="585" y="-540" width="140" height="30" as="geometry" />
        </mxCell>
        <mxCell id="RlkcewKYQu9XTbAVP8YR-22" value="&lt;font face=&quot;Verdana&quot;&gt;Create work order&lt;/font&gt;" style="text;html=1;align=left;verticalAlign=middle;whiteSpace=wrap;rounded=0;" vertex="1" parent="1">
          <mxGeometry x="585" y="-460" width="115" height="30" as="geometry" />
        </mxCell>
        <mxCell id="RlkcewKYQu9XTbAVP8YR-23" value="&lt;font face=&quot;Verdana&quot;&gt;Attach driver&lt;/font&gt;" style="text;html=1;align=left;verticalAlign=middle;whiteSpace=wrap;rounded=0;" vertex="1" parent="1">
          <mxGeometry x="585" y="-380" width="95" height="30" as="geometry" />
        </mxCell>
        <mxCell id="RlkcewKYQu9XTbAVP8YR-24" value="" style="endArrow=classic;html=1;rounded=0;" edge="1" parent="1">
          <mxGeometry width="50" height="50" relative="1" as="geometry">
            <mxPoint x="560" y="-320" as="sourcePoint" />
            <mxPoint x="360" y="-320" as="targetPoint" />
          </mxGeometry>
        </mxCell>
        <mxCell id="RlkcewKYQu9XTbAVP8YR-25" value="" style="endArrow=classic;html=1;rounded=0;" edge="1" parent="1">
          <mxGeometry width="50" height="50" relative="1" as="geometry">
            <mxPoint x="560" y="-280" as="sourcePoint" />
            <mxPoint x="760" y="-280" as="targetPoint" />
          </mxGeometry>
        </mxCell>
        <mxCell id="RlkcewKYQu9XTbAVP8YR-26" value="" style="endArrow=classic;html=1;rounded=0;" edge="1" parent="1">
          <mxGeometry width="50" height="50" relative="1" as="geometry">
            <mxPoint x="560" y="-240" as="sourcePoint" />
            <mxPoint x="40" y="-240" as="targetPoint" />
          </mxGeometry>
        </mxCell>
        <mxCell id="RlkcewKYQu9XTbAVP8YR-27" value="Notifications" style="text;html=1;align=left;verticalAlign=middle;whiteSpace=wrap;rounded=0;fontFamily=Verdana;" vertex="1" parent="1">
          <mxGeometry x="410" y="-340" width="110" height="30" as="geometry" />
        </mxCell>
        <mxCell id="RlkcewKYQu9XTbAVP8YR-28" value="&lt;font face=&quot;Verdana&quot;&gt;Email with pdf attached&lt;/font&gt;" style="text;html=1;align=left;verticalAlign=middle;whiteSpace=wrap;rounded=0;" vertex="1" parent="1">
          <mxGeometry x="577.5" y="-320" width="160" height="30" as="geometry" />
        </mxCell>
        <mxCell id="RlkcewKYQu9XTbAVP8YR-29" value="Tracking text message" style="text;html=1;align=left;verticalAlign=middle;whiteSpace=wrap;rounded=0;fontFamily=Verdana;" vertex="1" parent="1">
          <mxGeometry x="360" y="-270" width="190" height="30" as="geometry" />
        </mxCell>
        <mxCell id="RlkcewKYQu9XTbAVP8YR-32" value="" style="endArrow=classic;html=1;rounded=0;" edge="1" parent="1">
          <mxGeometry width="50" height="50" relative="1" as="geometry">
            <mxPoint x="360" y="-160" as="sourcePoint" />
            <mxPoint x="560" y="-160" as="targetPoint" />
          </mxGeometry>
        </mxCell>
        <mxCell id="RlkcewKYQu9XTbAVP8YR-33" value="&lt;font face=&quot;Verdana&quot;&gt;Updating riders position&lt;/font&gt;" style="text;html=1;align=left;verticalAlign=middle;whiteSpace=wrap;rounded=0;" vertex="1" parent="1">
          <mxGeometry x="375" y="-190" width="160" height="30" as="geometry" />
        </mxCell>
        <mxCell id="RlkcewKYQu9XTbAVP8YR-34" value="" style="endArrow=classic;html=1;rounded=0;" edge="1" parent="1">
          <mxGeometry width="50" height="50" relative="1" as="geometry">
            <mxPoint x="200" y="-90" as="sourcePoint" />
            <mxPoint x="360" y="-90" as="targetPoint" />
          </mxGeometry>
        </mxCell>
        <mxCell id="RlkcewKYQu9XTbAVP8YR-36" value="Text" style="text;html=1;align=center;verticalAlign=middle;resizable=0;points=[];autosize=1;strokeColor=none;fillColor=none;" vertex="1" parent="1">
          <mxGeometry x="156" y="-52" width="50" height="30" as="geometry" />
        </mxCell>
        <mxCell id="RlkcewKYQu9XTbAVP8YR-39" value="" style="endArrow=none;html=1;rounded=0;strokeWidth=2;" edge="1" parent="1">
          <mxGeometry width="50" height="50" relative="1" as="geometry">
            <mxPoint x="201" y="0.66668701171875" as="sourcePoint" />
            <mxPoint x="210" y="-720" as="targetPoint" />
          </mxGeometry>
        </mxCell>
        <mxCell id="RlkcewKYQu9XTbAVP8YR-43" value="Text" style="text;html=1;align=center;verticalAlign=middle;whiteSpace=wrap;rounded=0;" vertex="1" parent="1">
          <mxGeometry x="390" y="-140" width="60" height="30" as="geometry" />
        </mxCell>
        <mxCell id="RlkcewKYQu9XTbAVP8YR-44" value="&lt;font face=&quot;Verdana&quot;&gt;&lt;b&gt;Driver&lt;/b&gt;&lt;/font&gt;" style="text;html=1;align=center;verticalAlign=middle;whiteSpace=wrap;rounded=0;" vertex="1" parent="1">
          <mxGeometry x="330" y="-740" width="60" height="30" as="geometry" />
        </mxCell>
        <mxCell id="RlkcewKYQu9XTbAVP8YR-45" value="Customer" style="text;html=1;align=center;verticalAlign=middle;whiteSpace=wrap;rounded=0;fontStyle=1;fontFamily=Verdana;" vertex="1" parent="1">
          <mxGeometry x="180" y="-740" width="60" height="30" as="geometry" />
        </mxCell>
      </root>
    </mxGraphModel>
  </diagram>
</mxfile>
